<svg id="Layer_1" data-name="Layer 1" xmlns="http://www.w3.org/2000/svg" viewBox="0 0 966.36 579.82"><defs><style>.cls-1{fill:#d4894a;}</style></defs><path class="cls-1" d="M41,290.36C78.3,236.83,155.19,118,151,99.73c-.87-3.75-3.26-4.33-6.2-3.64-4.76,1.38-19.91,5.46-25.27,6.7-4.82,1.12-7.75.67-8.06-.67-.23-2.21,3.33-7.55,6.55-8.29,30-7,76.27-48.46,88.6-51.31,5.89-1.37,12.95,3.49,14.25,9.11,3.17,13.67-16.12,60.76-35,103.53.38,1.61,1.51,1.63,3.65,1.13,2.41-.56,6-2,10.59-3C226.33,147.18,240,155,243.48,170c8.82,38-47.59,122.26-125,140.21-53,12.3-79-1.16-81-9.73C36.9,298.09,37.61,295.1,41,290.36Zm136.52-76c-1.18-5.09-4.4-8-10.83-6.53-8.84,2-32.61,61.48-31.61,65.77.68,2.94,2.72,4.45,7,3.45C162.41,272.09,181.4,231,177.55,214.39Z"/><path class="cls-1" d="M364.48,220.73a29.07,29.07,0,0,1-13.54,0c-14,16.51-39.66,40.81-66.18,47-25.45,5.9-38.9-3.4-42.81-20.28-9.5-41,37.59-126.43,102.69-141.52,4.82-1.12,11.19.79,11.81,3.47.31,1.34-.72,3-4.61,4.46-32.31,12.85-46.22,50.24-41.07,72.47,2.36,10.18,8.78,17.16,19,17.34A54.87,54.87,0,0,1,323,186.6c-5.72-24.65,11.72-61.44,40.92-68.21,11-2.54,16.64,2.36,18.63,10.93,3.6,15.54-4.82,43.74-16,63.83,1.07,3.42,2.34,11.31,8,10,4.56-1.06,11.74-7.8,23.62-27.21a5.31,5.31,0,0,1,3.11-2.42c2.14-.49,4.32.41,4.82,2.55a5.26,5.26,0,0,1-.45,2.93C393.3,205,378.14,217.56,364.48,220.73Z"/><path class="cls-1" d="M499.71,91.71c3.35,14.46-4,36.22-3.72,37.55.19.81.71,1.82,2.05,1.51,11.51-2.67,22-28.24,43.39-33.21,16.34-3.79,23.85,1.81,26.27,12.26,6.27,27.05-20.63,86.36-16.4,104.58,3.1,13.39,10.32,16.52,18.63,14.59,11.25-2.61,23.93-14.86,28.83-24.18a15.68,15.68,0,0,1,3.36-1.35c1.07-.25,1.93-.16,2.12.64a4.51,4.51,0,0,1-.23,1.46c-8.13,30.68-51.49,77.43-87.92,85.88-29.47,6.83-42.32-2.33-46-18.13-8.95-38.58,29.1-86.36,25.8-100.55-.24-1.08-1-2-2.9-1.59-9.32,2.44-27.36,31.75-40.6,48.93-5,6.26-14.75,11.89-25.19,14.31-18,4.17-53.09-8.58-56.19-22-.56-2.41-.57-6.08,3-10,8.25-10.67,60.76-61.8,55.79-83.23-.68-2.94-2.21-3.44-5.42-2.69-2.95.68-7.11,2.21-14.08,3.82-5.62,1.31-9-1-9.61-3.7-.49-2.14.68-4.39,3.89-5.13,27.33-6.34,40.79-25,70.53-31.88C491,76,497.53,82.33,499.71,91.71Z"/><path class="cls-1" d="M640.86,318.55c5.77,24.91-20,80.57-39.43,105.11,4,1.34,11.27-3.74,12.57,1.89.44,1.87,0,3.67-1.48,4.58-7.88,4.93-16.7,9.52-25.95,12.22C572.69,458,503.07,523,466.37,531.48c-11.26,2.61-19.21-.07-21.76-11.05-4.29-18.48,24.8-61.08,21-77.42-1.18-5.09-4.5-6-8-5.2-6.43,1.49-14,8.89-14.24,9.22a7.09,7.09,0,0,1-3.77,2c-1.6.37-3.34.21-3.9-2.2-.24-1.08.45-2.93,2-4.71,10.11-13.63,58.75-53.42,86.07-59.75,9.65-2.24,16.62-.19,18.54,8.12,3,13.13-17.85,53.26-15.31,64.24,1.62,7,7.18,9.06,12.54,7.82,10.18-2.36,22.68-15.42,22.1-20.37-4.56-2.61-7.62-7.26-9.11-13.69-7.88-34,25.61-112.36,64.72-121.43C631.5,303.78,638.62,308.9,640.86,318.55Z"/><path class="cls-1" d="M689.28,431.24c1.24,5.36,5.47,7.77,13.78,5.84,10.71-2.48,24.4-18.92,33.15-34.78a5.5,5.5,0,0,1,2.69-1.76c2.15-.49,4.31,1.54,4.69,3.15a3.89,3.89,0,0,1-.25,2.6c-13.49,28.25-56,77.62-95.61,86.81-23.84,5.53-34.4-1.06-37.38-13.92-7.58-32.68,35.22-105,44-118,0,0,4.75-8.73,14.13-10.9,12.9-1.58,31.28-3.87,44.72-1.9a5.8,5.8,0,0,1,5.2,4.16,5.44,5.44,0,0,1-.74,4.12C708.91,372.21,685.49,414.9,689.28,431.24Z"/><path class="cls-1" d="M730.81,207.36c25.72-6,45.58,6.65,50.92,29.69,9.57,41.25-27.46,88.51-65,97.21-25.45,5.9-45.25-6.45-50.53-29.22C656.67,263.79,692.77,216.18,730.81,207.36Z"/><path class="cls-1" d="M836.62,319.17c3.36,14.47-4,36.22-3.71,37.56.19.8.7,1.81,2,1.5,11.52-2.67,22-28.24,43.4-33.21,16.34-3.78,23.85,1.81,26.27,12.26,6.27,27.06-20.63,86.37-16.41,104.58,3.11,13.4,10.33,16.52,18.63,14.6,11.25-2.61,23.94-14.87,28.83-24.19a15.59,15.59,0,0,1,3.36-1.34c1.07-.25,1.94-.17,2.13.64a4.89,4.89,0,0,1-.23,1.46c-8.13,30.68-51.49,77.43-87.92,85.87-29.47,6.84-42.32-2.32-46-18.13-8.94-38.57,29.1-86.35,25.81-100.55-.25-1.07-1-2-2.91-1.58-9.31,2.44-27.36,31.75-40.59,48.93-5.05,6.25-14.75,11.89-25.2,14.31-18,4.16-53.08-8.58-56.19-22-.56-2.41-.56-6.08,3-10,8.26-10.66,60.77-61.79,55.8-83.22-.69-3-2.21-3.44-5.43-2.7-2.94.69-7.11,2.21-14.07,3.83-5.63,1.3-9-1-9.61-3.7-.5-2.14.68-4.39,3.89-5.14,27.33-6.33,40.79-25,70.52-31.87C827.89,303.41,834.45,309.8,836.62,319.17Z"/></svg>